# xmcd CD database file generated by OrangeCD 5.2
#
# Track frame offsets:
#	150
#	5560
#	19789
#	32792
#	48177
#	62149
#	74501
#	87519
#	106625
#	119269
#	137446
#	154682
#	171451
#	179674
#	188940
#
# Disc length: 2720 seconds
#
# Revision: 1
# Processed by: cddbd v1.5.1PL0 Copyright (c) Steve Scherf et al.
# Submitted via: OrangeCD 5.2
#
DISCID=cc0a9e0f
DTITLE=Johnny Cash - Live At Manchester Disc 2
DYEAR=1900
DGENRE=Country
TTITLE0=The Tennessee Three - 706 Union
TTITLE1=Carl Perkins - CC Rider
TTITLE2=Carl Perkins - Matchbox
TTITLE3=Carl Perkins - Green, Green Grass Of Home
TTITLE4=Carl Perkins - One More Loser Goin' Home
TTITLE5=Carl Perkins - Boppin' The Blues
TTITLE6=Carl Perkins - Me And Jesus
TTITLE7=Carl Perkins - Blue Suede Shoes
TTITLE8=Big River
TTITLE9=Sunday Morning Coming Down
TTITLE10=City Of New Orleans
TTITLE11=The Ballad Of Barbara
TTITLE12=I Still Miss Someone
TTITLE13=Me And Bobby McGee
TTITLE14=These Hands
EXTD=
EXTT0=
EXTT1=
EXTT2=
EXTT3=
EXTT4=
EXTT5=
EXTT6=
EXTT7=
EXTT8=
EXTT9=
EXTT10=
EXTT11=
EXTT12=
EXTT13=
EXTT14=
PLAYORDER=
